<svg preserveAspectRatio="none" overflow="visible" style="display: block;" width="535" height="204" viewBox="0 0 535 204" fill="none" xmlns="http://www.w3.org/2000/svg">
<g id="Header / Decorative Artwork" clip-path="url(#clip0_0_61)">
<rect id="Header / Gradient Base" width="535" height="204" fill="#74B0FE"/>
<path id="Header / Wave Right" d="M3.65414 0.157988L3.05176e-05 0C-0.00222778 5.77493 0.121155 32.2645 3.05176e-05 38.108C9.547 37.9921 17.8983 35.3365 26.9854 38.108C80.7588 54.5061 106.762 103.913 136.02 147.908C140.967 155.347 146.135 160.736 150.702 167.496C158.333 175.56 166.646 186.904 176.805 194.981C194.204 208.812 239.668 219.563 259.705 205.173C262.096 203.457 300.656 174.877 302.903 172.378C303.019 172.418 303.033 172.408 302.933 172.343C302.924 172.354 302.914 172.366 302.903 172.378C300.846 171.672 266.874 155.46 271.565 158.135C266.582 161.289 231.188 182.621 225.217 182.1C213.142 181.043 201.068 173.97 192.539 165.806C187.04 160.54 182.929 154.12 178.689 147.908C173.559 140.355 168.492 132.76 163.487 125.128C129.952 74.5462 91.2456 17.602 26.9854 3.37424C19.067 1.62127 11.7273 0.76824 3.65414 0.157988Z" fill="url(#paint0_linear_0_61)"/>
<path id="Header / Wave Left" d="M524.211 0.157735L535 0C535.007 5.76568 534.642 32.2128 535 38.047C506.812 37.9312 482.154 35.2799 455.324 38.047C296.556 54.4188 187.17 126.086 152.108 170.01C146.179 177.438 139.985 182.818 134.512 189.567C125.368 197.618 115.406 208.944 103.231 217.008C82.3799 230.817 27.8961 241.551 3.88428 227.184C1.01845 225.471 -45.1908 196.936 -47.8836 194.442C-48.0227 194.481 -48.04 194.472 -47.92 194.407C-47.9089 194.418 -47.8968 194.429 -47.8836 194.442C-45.419 193.736 -4.70739 177.55 -10.328 180.222C-4.35698 183.37 38.0585 204.668 45.2148 204.147C59.6845 203.093 74.1549 196.031 84.3752 187.88C90.965 182.623 95.8925 176.213 100.973 170.01C107.121 162.469 113.194 154.887 119.191 147.267C159.38 96.7664 265.593 17.5738 455.324 3.36886C478.704 1.6187 500.375 0.767009 524.211 0.157735Z" fill="url(#paint1_linear_0_61)"/>
<path id="Header / Accent Band" d="M547 161C547 161 372.377 135.955 256.467 135.02C149.986 134.161 -12 161 -12 161" stroke="url(#paint2_linear_0_61)" stroke-width="40"/>
</g>
<defs>
<linearGradient id="paint0_linear_0_61" x1="12.8474" y1="18.323" x2="230.396" y2="204.223" gradientUnits="userSpaceOnUse">
<stop offset="0.149038" stop-color="#4187F6"/>
<stop offset="0.504808" stop-color="#82BAE3"/>
<stop offset="0.889423" stop-color="white" stop-opacity="0"/>
</linearGradient>
<linearGradient id="paint1_linear_0_61" x1="299.717" y1="40.632" x2="79.8976" y2="266.1" gradientUnits="userSpaceOnUse">
<stop offset="0.149038" stop-color="#4187F6"/>
<stop offset="0.504808" stop-color="#82BAE3"/>
<stop offset="0.889423" stop-color="white" stop-opacity="0"/>
</linearGradient>
<linearGradient id="paint2_linear_0_61" x1="-5.13138" y1="147.682" x2="546.999" y2="148.44" gradientUnits="userSpaceOnUse">
<stop stop-color="white" stop-opacity="0.07"/>
<stop offset="0.240385" stop-color="#82BAE3"/>
<stop offset="0.848645" stop-color="#398BFB"/>
<stop offset="1" stop-color="#4187F6"/>
</linearGradient>
<clipPath id="clip0_0_61">
<rect width="535" height="204" fill="white"/>
</clipPath>
</defs>
</svg>
